<svg width="40" height="40" viewBox="0 0 40 40" fill="none" xmlns="http://www.w3.org/2000/svg">
<circle cx="20" cy="20" r="20" fill="#474141"/>
<path d="M22.4751 20L15.1251 12.65C14.8751 12.4 14.7541 12.104 14.7621 11.762C14.7701 11.42 14.8994 11.1243 15.1501 10.875C15.4008 10.6257 15.6968 10.5007 16.0381 10.5C16.3794 10.4993 16.6751 10.6243 16.9251 10.875L24.6001 18.575C24.8001 18.775 24.9501 19 25.0501 19.25C25.1501 19.5 25.2001 19.75 25.2001 20C25.2001 20.25 25.1501 20.5 25.0501 20.75C24.9501 21 24.8001 21.225 24.6001 21.425L16.9001 29.125C16.6501 29.375 16.3584 29.496 16.0251 29.488C15.6918 29.48 15.4001 29.3507 15.1501 29.1C14.9001 28.8493 14.7751 28.5533 14.7751 28.212C14.7751 27.8707 14.9001 27.575 15.1501 27.325L22.4751 20Z" fill="#E9EBEC"/>
</svg>
