<svg width="30" height="30" viewBox="0 0 30 30" fill="none" xmlns="http://www.w3.org/2000/svg">
<path d="M15 18.0929L24.1875 8.90539C24.5 8.59289 24.87 8.44164 25.2975 8.45164C25.725 8.46164 26.0946 8.6233 26.4062 8.93664C26.7179 9.24997 26.8742 9.61997 26.875 10.0466C26.8758 10.4733 26.7196 10.8429 26.4062 11.1554L16.7812 20.7491C16.5312 20.9991 16.25 21.1866 15.9375 21.3116C15.625 21.4366 15.3125 21.4991 15 21.4991C14.6875 21.4991 14.375 21.4366 14.0625 21.3116C13.75 21.1866 13.4687 20.9991 13.2187 20.7491L3.59375 11.1241C3.28125 10.8116 3.13 10.4471 3.14 10.0304C3.15 9.61372 3.31166 9.24914 3.625 8.93664C3.93833 8.62414 4.30833 8.46789 4.735 8.46789C5.16166 8.46789 5.53125 8.62414 5.84375 8.93664L15 18.0929Z" fill="#C0C0C0"/>
</svg>
