<svg width="87" height="87" viewBox="0 0 87 87" fill="none" xmlns="http://www.w3.org/2000/svg">
<circle cx="43.5" cy="43.5" r="42.5" fill="#643F36" stroke="#E0DBD8" stroke-width="2"/>
<circle cx="43.5" cy="43.5" r="38" fill="#643F36" stroke="#E0DBD8" stroke-width="5"/>
<path fill-rule="evenodd" clip-rule="evenodd" d="M55 34C57.2091 34 59 35.7909 59 38V48C59 50.2091 57.2091 52 55 52H54V58.9282L46.6281 52H39C36.7909 52 35 50.2091 35 48V38C35 35.7909 36.7909 34 39 34H55Z" fill="#D9D9D9"/>
<mask id="path-4-outside-1_294_9522" maskUnits="userSpaceOnUse" x="25" y="24" width="30" height="35" fill="black">
<rect fill="white" x="25" y="24" width="30" height="35"/>
<path fill-rule="evenodd" clip-rule="evenodd" d="M32 27C29.7909 27 28 28.7909 28 31V41C28 43.2091 29.7909 45 32 45H33V51.9282L40.3719 45H48C50.2091 45 52 43.2091 52 41V31C52 28.7909 50.2091 27 48 27H32Z"/>
</mask>
<path fill-rule="evenodd" clip-rule="evenodd" d="M32 27C29.7909 27 28 28.7909 28 31V41C28 43.2091 29.7909 45 32 45H33V51.9282L40.3719 45H48C50.2091 45 52 43.2091 52 41V31C52 28.7909 50.2091 27 48 27H32Z" fill="#D9D9D9"/>
<path d="M33 45H36V42H33V45ZM33 51.9282H30V58.8645L35.0545 54.1143L33 51.9282ZM40.3719 45V42H39.1834L38.3174 42.8139L40.3719 45ZM31 31C31 30.4477 31.4477 30 32 30V24C28.134 24 25 27.134 25 31H31ZM31 41V31H25V41H31ZM32 42C31.4477 42 31 41.5523 31 41H25C25 44.866 28.134 48 32 48V42ZM33 42H32V48H33V42ZM36 51.9282V45H30V51.9282H36ZM38.3174 42.8139L30.9455 49.7421L35.0545 54.1143L42.4264 47.1861L38.3174 42.8139ZM48 42H40.3719V48H48V42ZM49 41C49 41.5523 48.5523 42 48 42V48C51.866 48 55 44.866 55 41H49ZM49 31V41H55V31H49ZM48 30C48.5523 30 49 30.4477 49 31H55C55 27.134 51.866 24 48 24V30ZM32 30H48V24H32V30Z" fill="#643F36" mask="url(#path-4-outside-1_294_9522)"/>
</svg>
