<svg width="60" height="60" viewBox="0 0 60 60" fill="none" xmlns="http://www.w3.org/2000/svg">
<circle cx="30" cy="30" r="30" fill="#E9EBEC"/>
<g clip-path="url(#clip0_0_1)">
<path d="M44.8744 39.3281L44.6818 39.5917V39.9182V44.013C44.6818 44.5796 44.2422 44.9999 43.7323 44.9999H34.5H34.1168V45.0121C33.9278 45.0134 33.7077 45.0097 33.4893 45.0061C33.3041 45.003 33.1202 44.9999 32.9577 44.9999C25.0674 44.9999 18.9291 39.514 18.9285 33.0452C18.941 26.5599 25.0693 21.0752 32.9708 21.0752C40.8615 21.0752 47 26.5616 47 33.0309C47 35.335 46.2244 37.481 44.8744 39.3281Z" fill="#E0DBD8" stroke="#643F36" stroke-width="2"/>
<path d="M14.3183 32.843V32.5165L14.1256 32.2529C12.7756 30.4058 12 28.2598 12 25.9557C12 19.4864 18.1385 14 26.0292 14C33.9181 14 40.059 19.4851 40.0716 25.9699C40.071 32.4388 33.9327 37.9247 26.0424 37.9247H26.04H26.0377H26.0354H26.033H26.0307H26.0283H26.026H26.0236H26.0212H26.0188H26.0164H26.014H26.0116H26.0091H26.0067H26.0043H26.0018H25.9994H25.9969H25.9944H25.992H25.9895H25.987H25.9845H25.982H25.9795H25.9769H25.9744H25.9719H25.9693H25.9668H25.9642H25.9617H25.9591H25.9565H25.9539H25.9513H25.9487H25.9461H25.9435H25.9409H25.9383H25.9357H25.933H25.9304H25.9277H25.9251H25.9224H25.9198H25.9171H25.9144H25.9117H25.909H25.9064H25.9037H25.9009H25.8982H25.8955H25.8928H25.8901H25.8873H25.8846H25.8819H25.8791H25.8763H25.8736H25.8708H25.8681H25.8653H25.8625H25.8597H25.8569H25.8541H25.8513H25.8485H25.8457H25.8429H25.8401H25.8373H25.8344H25.8316H25.8288H25.8259H25.8231H25.8202H25.8174H25.8145H25.8117H25.8088H25.8059H25.8031H25.8002H25.7973H25.7944H25.7915H25.7887H25.7858H25.7829H25.78H25.7771H25.7741H25.7712H25.7683H25.7654H25.7625H25.7596H25.7566H25.7537H25.7508H25.7478H25.7449H25.742H25.739H25.7361H25.7331H25.7302H25.7272H25.7242H25.7213H25.7183H25.7154H25.7124H25.7094H25.7064H25.7035H25.7005H25.6975H25.6945H25.6916H25.6886H25.6856H25.6826H25.6796H25.6766H25.6736H25.6706H25.6676H25.6646H25.6616H25.6586H25.6556H25.6526H25.6496H25.6466H25.6436H25.6406H25.6376H25.6346H25.6316H25.6286H25.6256H25.6225H25.6195H25.6165H25.6135H25.6105H25.6075H25.6045H25.6014H25.5984H25.5954H25.5924H25.5894H25.5863H25.5833H25.5803H25.5773H25.5743H25.5713H25.5682H25.5652H25.5622H25.5592H25.5562H25.5531H25.5501H25.5471H25.5441H25.5411H25.5381H25.535H25.532H25.529H25.526H25.523H25.52H25.517H25.514H25.511H25.508H25.505H25.502H25.499H25.4959H25.493H25.49H25.487H25.484H25.481H25.478H25.475H25.472H25.469H25.466H25.463H25.4601H25.4571H25.4541H25.4511H25.4482H25.4452H25.4422H25.4393H25.4363H25.4333H25.4304H25.4274H25.4245H25.4215H25.4186H25.4156H25.4127H25.4097H25.4068H25.4039H25.4009H25.398H25.3951H25.3922H25.3892H25.3863H25.3834H25.3805H25.3776H25.3747H25.3718H25.3689H25.366H25.3631H25.3602H25.3573H25.3545H25.3516H25.3487H25.3459H25.343H25.3401H25.3373H25.3344H25.3316H25.3288H25.3259H25.3231H25.3203H25.3174H25.3146H25.3118H25.309H25.3062H25.3034H25.3006H25.2978H25.295H25.2922H25.2894H25.2867H25.2839H25.2811H25.2784H25.2756H25.2729H25.2702H25.2674H25.2647H25.262H25.2592H25.2565H25.2538H25.2511H25.2484H25.2457H25.243H25.2404H25.2377H25.235H25.2324H25.2297H25.2271H25.2244H25.2218H25.2191H25.2165H25.2139H25.2113H25.2087H25.2061H25.2035H25.2009H25.1983H25.1958H25.1932H25.1906H25.1881H25.1855H25.183H25.1805H25.1779H25.1754H25.1729H25.1704H25.1679H25.1654H25.163H25.1605H25.158H25.1556H25.1531H25.1507H25.1482H25.1458H25.1434H25.141H25.1386H25.1362H25.1338H25.1314H25.129H25.1267H25.1243H25.122H25.1196H25.1173H25.115H25.1126H25.1103H25.108H25.1058H25.1035H25.1012H25.0989H25.0967H25.0944H25.0922H25.09H25.0878H25.0855H25.0833H25.0812H25.079H25.0768H25.0746H25.0725H25.0703H25.0682H25.0661H25.064H25.0619H25.0598H25.0577H25.0556H25.0535H25.0515H25.0494H25.0474H25.0453H25.0433H25.0413H25.0393H25.0373H25.0354H25.0334H25.0314H25.0295H25.0276H25.0256H25.0237H25.0218H25.0199H25.018H25.0162H25.0143H25.0124H25.0106H25.0088H25.007H25.0052H25.0034H25.0016H24.9998H24.998H24.9963H24.9945H24.9928H24.9911H24.9894H24.9877H24.986H24.9844H24.9827H24.981H24.9794H24.9778H24.9762H24.9746H24.973H24.9714H24.9699H24.9683H24.9668H24.9652H24.9637H24.9622H24.9607H24.9593H24.9578H24.9563H24.9549H24.9535H24.9521H24.9507H24.9493H24.9479H24.9465H24.9452H24.9438H24.9425H24.9412H24.9399H24.9386H24.9374H24.9361H24.9349H24.9336H24.9324H24.9312H24.93H24.9289H24.9277H24.9265H24.9254H24.9243H24.9232H24.9221H24.921H24.9199H24.9189H24.9179H24.9168H24.9158H24.9148H24.9138H24.9129H24.9119H24.911H24.9101H24.9092H24.9083H24.9074H24.9065H24.9057H24.9049H24.904H24.9032H24.9024H24.9017H24.9009H24.9002H24.8994H24.8987H24.898H24.8973H24.8967H24.896H24.8954H24.8948H24.8942H24.8936H24.893H24.8925H24.8919H24.8914H24.8909H24.8904H24.8899H24.8894H24.889H24.8886H24.8882H24.8878H24.8874H24.887H24.8867H24.8863H24.886H24.8857H24.8854H24.8852H24.8849H24.8847H24.8845H24.8843H24.8841H24.8839H24.8838H24.8837H24.8835H24.8834H24.8834H24.8833H24.8833H24.8832H15.2677C14.7578 37.9247 14.3183 37.5044 14.3183 36.9378V32.843Z" fill="#E9EBEC" stroke="#643F36" stroke-width="2"/>
<path d="M19.8252 26.4195V25.5186C19.8252 25.1149 19.4979 24.7876 19.0942 24.7876C18.6905 24.7876 18.3632 25.1149 18.3632 25.5186V26.4195C18.3632 26.8232 18.6905 27.1505 19.0942 27.1505C19.4979 27.1505 19.8252 26.8232 19.8252 26.4195Z" fill="#643F36"/>
<path d="M26.7669 26.4195V25.5186C26.7669 25.1149 26.4396 24.7876 26.0359 24.7876C25.6321 24.7876 25.3048 25.1149 25.3048 25.5186V26.4195C25.3048 26.8232 25.6321 27.1505 26.0359 27.1505C26.4396 27.1505 26.7669 26.8232 26.7669 26.4195Z" fill="#643F36"/>
<path d="M33.6954 26.4195V25.5186C33.6954 25.1149 33.3681 24.7876 32.9643 24.7876C32.5606 24.7876 32.2333 25.1149 32.2333 25.5186V26.4195C32.2333 26.8232 32.5606 27.1505 32.9643 27.1505C33.3681 27.1505 33.6954 26.8232 33.6954 26.4195Z" fill="#643F36"/>
</g>
<defs>
<clipPath id="clip0_0_1">
<rect width="37" height="33" fill="white" transform="translate(11 13)"/>
</clipPath>
</defs>
</svg>
