<svg width="18" height="18" viewBox="0 0 18 18" fill="none" xmlns="http://www.w3.org/2000/svg">
<path d="M8.99976 3.75C4.26951 3.75 1.97451 8.01225 1.56726 8.856C1.54549 8.90088 1.53418 8.95012 1.53418 9C1.53418 9.04988 1.54549 9.09912 1.56726 9.144C1.97376 9.98775 4.26876 14.25 8.99976 14.25C13.7308 14.25 16.025 9.98775 16.4323 9.144C16.454 9.09912 16.4653 9.04988 16.4653 9C16.4653 8.95012 16.454 8.90088 16.4323 8.856C16.0258 8.01225 13.7308 3.75 8.99976 3.75Z" stroke="#9A9A9A" stroke-linecap="round" stroke-linejoin="round"/>
<path d="M9 11.25C10.2426 11.25 11.25 10.2426 11.25 9C11.25 7.75736 10.2426 6.75 9 6.75C7.75736 6.75 6.75 7.75736 6.75 9C6.75 10.2426 7.75736 11.25 9 11.25Z" stroke="#9A9A9A" stroke-linecap="round" stroke-linejoin="round"/>
</svg>
