<svg width="60" height="60" viewBox="0 0 60 60" fill="none" xmlns="http://www.w3.org/2000/svg">
<circle cx="30" cy="30" r="30" fill="#E9EBEC"/>
<path d="M38.7341 27.9375H15C13.8954 27.9375 13 28.8329 13 29.9375V41.5208C13 42.6254 13.8954 43.5208 15 43.5208H45C46.1046 43.5208 47 42.6254 47 41.5208V36.2034C47 35.673 46.7893 35.1643 46.4142 34.7892L40.1483 28.5233C39.7732 28.1482 39.2645 27.9375 38.7341 27.9375Z" stroke="#643F36" stroke-width="2"/>
<circle cx="20.0834" cy="43.1667" r="3.25" fill="#D9D9D9" stroke="#643F36" stroke-width="2"/>
<circle cx="39.9166" cy="43.1667" r="3.25" fill="#D9D9D9" stroke="#643F36" stroke-width="2"/>
<path fill-rule="evenodd" clip-rule="evenodd" d="M38.4742 25.4583C38.4913 25.2246 38.5 24.9884 38.5 24.7501C38.5 19.6645 34.5358 15.5417 29.6458 15.5417C24.7558 15.5417 20.7916 19.6645 20.7916 24.7501C20.7916 24.9884 20.8003 25.2246 20.8174 25.4583H38.4742Z" fill="#E0DBD8"/>
<path fill-rule="evenodd" clip-rule="evenodd" d="M36.3385 25.4583C36.4446 24.8842 36.5 24.2923 36.5 23.6875C36.5 18.3372 32.1628 14 26.8125 14C21.4622 14 17.125 18.3372 17.125 23.6875C17.125 24.2923 17.1804 24.8842 17.2865 25.4583H15.2583C15.1705 24.8809 15.125 24.2895 15.125 23.6875C15.125 17.2327 20.3577 12 26.8125 12C33.2673 12 38.5 17.2327 38.5 23.6875C38.5 24.2895 38.4545 24.8809 38.3667 25.4583H36.3385Z" fill="#643F36"/>
<circle cx="26.8125" cy="23.6876" r="1" fill="#D9D9D9" stroke="#643F36" stroke-width="1.54167"/>
<line x1="25.1799" y1="22.6622" x2="22.5743" y2="21.1578" stroke="#643F36" stroke-width="2" stroke-linecap="round"/>
<path d="M19.375 33.25H31.4167" stroke="#643F36" stroke-width="2" stroke-linecap="round"/>
<path d="M25.75 36.0833H31.4167" stroke="#643F36" stroke-width="2" stroke-linecap="round"/>
<path d="M46.6459 35.0209H39.0834C37.9788 35.0209 37.0834 34.1255 37.0834 33.0209V30.4167" stroke="#643F36" stroke-width="2" stroke-linecap="round"/>
<path d="M27.8751 22.3318L31.1233 19.0835" stroke="#643F36" stroke-width="2" stroke-linecap="round"/>
</svg>
