<svg width="60" height="60" viewBox="0 0 60 60" fill="none" xmlns="http://www.w3.org/2000/svg">
<circle cx="30" cy="30" r="30" fill="#E9EBEC"/>
<rect x="35.2019" y="14.6313" width="7.57572" height="25.5543" fill="#E0DBD8"/>
<rect x="38.2321" y="38.8408" width="4.54543" height="6.72482" fill="#E0DBD8"/>
<rect x="15.6313" y="41.7776" width="20.2019" height="3.15655" fill="#E0DBD8"/>
<path d="M20.0505 21.8914V16C20.0505 14.8954 20.9459 14 22.0505 14H40.7776C41.8822 14 42.7776 14.8954 42.7776 16V43.5655C42.7776 44.6701 41.8822 45.5655 40.7776 45.5655H20.0505H18.7878" stroke="#643F36" stroke-width="2"/>
<path d="M26.9949 38.9366V32.6235H18.7878V38.9366L22.8914 36.727L26.9949 38.9366Z" fill="#D9D9D9" stroke="#643F36" stroke-width="2" stroke-linejoin="round"/>
<path d="M15.6313 38.6211V43.5655C15.6313 44.6701 16.5267 45.5655 17.6313 45.5655H21.3131" stroke="#643F36" stroke-width="2" stroke-linecap="round" stroke-linejoin="round"/>
<path d="M39.6211 14L43.6185 14C44.7231 14 45.6185 14.8954 45.6185 16L45.6185 21.2601" stroke="#643F36" stroke-width="2" stroke-linecap="round" stroke-linejoin="round"/>
<path d="M45.6185 21.26H42.7776" stroke="#643F36" stroke-width="2" stroke-linecap="round" stroke-linejoin="round"/>
<path d="M37.7271 45.5655V40.6211C37.7271 39.5165 36.8317 38.6211 35.7271 38.6211H30.1514" stroke="#643F36" stroke-width="2" stroke-linecap="round" stroke-linejoin="round"/>
<line x1="34.308" y1="31.3081" x2="36.7272" y2="31.3081" stroke="#643F36" stroke-width="2" stroke-linecap="round"/>
<line x1="34.308" y1="28.1514" x2="36.7272" y2="28.1514" stroke="#643F36" stroke-width="2" stroke-linecap="round"/>
<line x1="34.308" y1="24.9949" x2="36.7272" y2="24.9949" stroke="#643F36" stroke-width="2" stroke-linecap="round"/>
<line x1="34.308" y1="21.8384" x2="36.7272" y2="21.8384" stroke="#643F36" stroke-width="2" stroke-linecap="round"/>
<circle cx="22.5757" cy="26.6263" r="6.57572" fill="#D9D9D9" stroke="#643F36" stroke-width="2"/>
<circle cx="22.5757" cy="26.6262" r="3.41917" fill="#D9D9D9" stroke="#643F36" stroke-width="2"/>
</svg>
