<svg width="30" height="30" viewBox="0 0 30 30" fill="none" xmlns="http://www.w3.org/2000/svg">
<path d="M23.839 16.4277L16.7678 23.5002C16.2989 23.9689 15.6632 24.2322 15.0003 24.2322C14.3373 24.2322 13.7016 23.9689 13.2328 23.5002L6.1615 16.429C5.57697 15.8495 5.11263 15.1603 4.79516 14.401C4.47769 13.6416 4.31334 12.827 4.31154 12.0039C4.30974 11.1809 4.47052 10.3655 4.78466 9.60479C5.0988 8.84403 5.56011 8.15281 6.14211 7.57082C6.7241 6.98882 7.41532 6.52751 8.17608 6.21337C8.93683 5.89923 9.75215 5.73845 10.5752 5.74025C11.3983 5.74205 12.2129 5.90641 12.9722 6.22387C13.7316 6.54134 14.4208 7.00568 15.0003 7.59021C16.1772 6.44255 17.7589 5.8048 19.4028 5.8151C21.0466 5.8254 22.6203 6.48292 23.7827 7.64524C24.9452 8.80756 25.603 10.3811 25.6135 12.0249C25.624 13.6688 24.9865 15.2506 23.839 16.4277Z" fill="#643F36" stroke="#643F36" stroke-width="2" stroke-linecap="round" stroke-linejoin="round"/>
</svg>
