<svg width="27" height="23" viewBox="0 0 27 23" fill="none" xmlns="http://www.w3.org/2000/svg">
<path d="M23.2227 12.7562L15.4443 20.536C14.9286 21.0515 14.2292 21.3411 13.5 21.3411C12.7708 21.3411 12.0715 21.0515 11.5558 20.536L3.77741 12.7576C3.13442 12.1202 2.62365 11.3621 2.27444 10.5268C1.92522 9.69149 1.74443 8.79542 1.74245 7.89006C1.74047 6.98469 1.91733 6.08784 2.26288 5.25101C2.60844 4.41417 3.11588 3.65384 3.75607 3.01364C4.39627 2.37345 5.15661 1.86601 5.99344 1.52045C6.83027 1.1749 7.72712 0.998034 8.63249 1.00002C9.53786 1.002 10.4339 1.18279 11.2692 1.532C12.1045 1.88122 12.8627 2.39199 13.5 3.03498C14.7947 1.77255 16.5346 1.07102 18.3428 1.08235C20.1511 1.09368 21.882 1.81696 23.1608 3.09551C24.4395 4.37406 25.163 6.10493 25.1746 7.91316C25.1862 9.7214 24.4849 11.4614 23.2227 12.7562Z" stroke="white" stroke-width="2" stroke-linecap="round" stroke-linejoin="round"/>
</svg>
