<svg width="30" height="30" viewBox="0 0 30 30" fill="none" xmlns="http://www.w3.org/2000/svg">
<path d="M4.4375 14.999L13.625 24.1865C13.9375 24.499 14.0887 24.8636 14.0787 25.2802C14.0687 25.6969 13.9071 26.0615 13.5938 26.374C13.2804 26.6865 12.9158 26.8427 12.5 26.8427C12.0842 26.8427 11.7196 26.6865 11.4062 26.374L1.78125 16.7802C1.53125 16.5302 1.34375 16.249 1.21875 15.9365C1.09375 15.624 1.03125 15.3115 1.03125 14.999C1.03125 14.6865 1.09375 14.374 1.21875 14.0615C1.34375 13.749 1.53125 13.4677 1.78125 13.2177L11.4062 3.59272C11.7188 3.28022 12.0887 3.12897 12.5162 3.13897C12.9437 3.14897 13.3133 3.31064 13.625 3.62397C13.9367 3.9373 14.0929 4.30189 14.0938 4.71772C14.0946 5.13355 13.9383 5.49814 13.625 5.81147L4.4375 14.999Z" fill="white"/>
</svg>
