<svg width="190" height="44" viewBox="0 0 190 44" fill="none" xmlns="http://www.w3.org/2000/svg">
<path d="M1.56809 13.7644H27.9642V19.7731L11.1073 37.4072H28.6176V43.9384H0V37.6684L16.7263 20.1649H1.56809V13.7644Z" fill="white"/>
<path d="M49.1334 13.7644H64.553C67.9505 13.7644 70.4333 14.5481 72.132 16.1156C73.8308 17.6831 74.6149 20.0343 74.6149 22.908C74.6149 25.9124 73.7001 28.2636 71.8707 30.0923C70.0413 31.921 67.2971 32.7048 63.5076 32.7048H58.4113V43.9384H49.0027V13.7644H49.1334ZM58.4113 26.5655H60.6327C62.4622 26.5655 63.6382 26.3042 64.4223 25.6511C65.2063 24.998 65.4677 24.2143 65.4677 23.2999C65.4677 22.3855 65.2063 21.6018 64.553 20.9487C63.8996 20.2956 62.7235 19.9037 61.0248 19.9037H58.4113V26.5655Z" fill="white"/>
<path d="M79.5804 13.7644H88.8583V25.1286L98.6588 13.7644H111.073L100.096 25.1286L111.596 43.9384H100.096L93.6932 31.5292L88.8583 36.4928V43.8077H79.5804V13.7644Z" fill="white"/>
<path d="M114.993 13.7644H124.271V43.9384H114.993V13.7644Z" fill="white"/>
<path d="M131.066 13.7644H144.917C147.662 13.7644 149.883 14.1563 151.582 14.8094C153.281 15.5931 154.587 16.6381 155.763 17.9443C156.939 19.2506 157.593 20.9487 158.116 22.7774C158.638 24.6061 158.9 26.5655 158.9 28.6554C158.9 31.921 158.508 34.4029 157.854 36.101C157.07 37.9297 156.155 39.3666 154.849 40.5422C153.542 41.7178 152.105 42.5015 150.667 42.8934C148.576 43.4159 146.747 43.6771 145.179 43.6771H131.327V13.7644H131.066ZM140.475 20.5568V37.0153H142.696C144.656 37.0153 145.963 36.7541 146.878 36.3622C147.662 35.9703 148.315 35.1866 148.838 34.1416C149.36 33.0966 149.491 31.2679 149.491 28.9167C149.491 25.7817 148.968 23.5611 147.923 22.3855C146.878 21.2099 145.179 20.5568 142.696 20.5568H140.475Z" fill="white"/>
<path d="M162.95 13.7644H189.347V19.7731L172.49 37.4072H190V43.9384H161.382V37.6684L178.109 20.1649H162.95V13.7644Z" fill="white"/>
<path d="M36.3274 34.9254C36.3274 35.3173 36.5887 35.5785 36.9808 35.5785H37.6341C37.7648 35.5785 37.7648 35.5785 37.8955 35.4479C38.0262 35.3173 38.1568 35.3173 38.2875 35.3173C38.5489 35.3173 38.8102 35.5785 38.8102 35.8397V36.6235V37.4072C38.8102 37.6685 38.5489 37.9297 38.2875 37.9297C38.1568 37.9297 38.0262 37.7991 37.8955 37.7991C37.8955 37.7991 37.7648 37.6685 37.6341 37.6685H36.9808C36.5887 37.6685 36.3274 37.9297 36.3274 38.3216C36.3274 38.5828 36.0661 38.8441 35.8047 38.8441H33.1912V36.6235V34.4029H35.8047C36.0661 34.5335 36.3274 34.6641 36.3274 34.9254Z" fill="white"/>
<path d="M39.0716 32.3129C39.0716 32.7048 38.8102 32.966 38.4182 32.966H37.8955C37.7648 32.966 37.7648 32.966 37.6341 32.8354C37.5035 32.7048 37.3728 32.7048 37.2421 32.7048C36.9808 32.7048 36.7194 32.966 36.7194 33.2273V34.011V34.7947C36.7194 35.056 36.9808 35.3172 37.2421 35.3172C37.3728 35.3172 37.5035 35.1866 37.6341 35.1866C37.6341 35.1866 37.7648 35.056 37.8955 35.056H38.5489C38.9409 35.056 39.2022 35.3172 39.2022 35.7091C39.2022 35.9703 39.4636 36.2316 39.7249 36.2316H42.3384V34.011V31.7904H39.7249C39.3329 31.921 39.0716 32.0517 39.0716 32.3129Z" fill="white"/>
<path d="M39.0716 27.088C39.0716 27.4799 38.8102 27.7411 38.4182 27.7411H37.8955C37.7648 27.7411 37.7648 27.7411 37.6341 27.6105C37.5035 27.4799 37.3728 27.4799 37.2421 27.4799C36.9808 27.4799 36.7194 27.7411 36.7194 28.0023V28.7861V29.5698C36.7194 29.8311 36.9808 30.0923 37.2421 30.0923C37.3728 30.0923 37.5035 29.9617 37.6341 29.9617C37.6341 29.9617 37.7648 29.8311 37.8955 29.8311H38.5489C38.9409 29.8311 39.2022 30.0923 39.2022 30.4842C39.2022 30.7454 39.4636 31.0067 39.7249 31.0067H42.3384V28.7861V26.5655H39.7249C39.3329 26.6961 39.0716 26.8267 39.0716 27.088Z" fill="white"/>
<path d="M39.0716 21.9937C39.0716 22.3856 38.8102 22.6468 38.4182 22.6468H37.8955C37.7648 22.6468 37.7648 22.6468 37.6341 22.5162C37.5035 22.3856 37.3728 22.3856 37.2421 22.3856C36.9808 22.3856 36.7194 22.6468 36.7194 22.9081V23.5612V24.3449C36.7194 24.6062 36.9808 24.8674 37.2421 24.8674C37.3728 24.8674 37.5035 24.7368 37.6341 24.7368C37.6341 24.7368 37.7648 24.6062 37.8955 24.6062H38.5489C38.9409 24.6062 39.2022 24.8674 39.2022 25.2593C39.2022 25.5205 39.4636 25.7818 39.7249 25.7818H42.3384V23.5612V21.3406H39.7249C39.3329 21.4712 39.0716 21.6018 39.0716 21.9937Z" fill="white"/>
<path d="M36.3274 29.8311C36.3274 30.223 36.5887 30.4842 36.9808 30.4842H37.6341C37.7648 30.4842 37.7648 30.4842 37.8955 30.3536C38.0262 30.223 38.1568 30.223 38.2875 30.223C38.5489 30.223 38.8102 30.4842 38.8102 30.7455V31.3986V32.1823C38.8102 32.4436 38.5489 32.7048 38.2875 32.7048C38.1568 32.7048 37.8955 32.7048 37.8955 32.5742C37.8955 32.5742 37.7648 32.4436 37.6341 32.4436H36.9808C36.5887 32.4436 36.3274 32.7048 36.3274 33.0967C36.3274 33.3579 36.0661 33.6192 35.8047 33.6192H33.1912V31.3986V29.178H35.8047C36.1967 29.3086 36.3274 29.4392 36.3274 29.8311Z" fill="white"/>
<path d="M36.3274 24.6061C36.3274 24.998 36.5887 25.2592 36.9808 25.2592H37.6341C37.7648 25.2592 37.7648 25.2592 37.8955 25.1286C38.0262 24.998 38.1568 24.998 38.2875 24.998C38.5489 24.998 38.8102 25.2592 38.8102 25.5205V26.1736V26.9573C38.8102 27.2186 38.5489 27.4798 38.2875 27.4798C38.1568 27.4798 37.8955 27.4798 37.8955 27.3492C37.8955 27.3492 37.7648 27.2186 37.6341 27.2186H36.9808C36.5887 27.2186 36.3274 27.4798 36.3274 27.8717C36.3274 28.1329 36.0661 28.3942 35.8047 28.3942H33.1912V26.1736V23.953H35.8047C36.1967 24.0836 36.3274 24.3449 36.3274 24.6061Z" fill="white"/>
<path d="M36.3274 19.3812C36.3274 19.7731 36.5887 20.0343 36.9808 20.0343H37.6341C37.7648 20.0343 37.7648 20.0343 37.8955 19.9037C38.0262 19.7731 38.1568 19.7731 38.2875 19.7731C38.5489 19.7731 38.8102 20.0343 38.8102 20.2956V20.9487V21.7324C38.8102 21.9937 38.5489 22.2549 38.2875 22.2549C38.1568 22.2549 37.8955 22.2549 37.8955 22.1243C37.8955 22.1243 37.7648 21.9937 37.6341 21.9937H36.9808C36.5887 21.9937 36.3274 22.2549 36.3274 22.6468C36.3274 22.908 36.0661 23.1693 35.8047 23.1693H33.1912V20.9487V18.7281H35.8047C36.1967 18.8587 36.3274 19.12 36.3274 19.3812Z" fill="white"/>
<path d="M37.2421 39.3665H33.4526C33.3219 39.3665 33.1912 39.6278 33.1912 39.889V43.2852C33.1912 43.5465 33.3219 43.8077 33.4526 43.8077H37.2421C37.3728 43.8077 37.5035 43.5465 37.5035 43.2852V39.889C37.5035 39.6278 37.3728 39.3665 37.2421 39.3665Z" fill="white"/>
<path d="M33.4526 39.4971H37.2421C37.3728 39.4971 37.5035 39.7584 37.5035 40.0196V39.889C37.5035 39.6278 37.3728 39.3665 37.2421 39.3665H33.4526C33.3219 39.3665 33.1912 39.6278 33.1912 39.889V40.0196C33.1912 39.7584 33.3219 39.4971 33.4526 39.4971Z" fill="white"/>
<path d="M42.2078 37.1459H39.3329C39.2023 37.1459 39.0716 37.4072 39.0716 37.6684V39.3665H38.2875C38.1569 39.3665 38.0262 39.6278 38.0262 39.889V43.2852C38.0262 43.5465 38.1569 43.8077 38.2875 43.8077H42.3384C42.4691 43.8077 42.5998 43.5465 42.5998 43.2852V42.1096V39.7584V37.5378C42.4691 37.4072 42.3384 37.1459 42.2078 37.1459Z" fill="white"/>
<path d="M38.1569 39.4971H38.9409V39.3665H38.1569C38.0262 39.3665 37.8955 39.6278 37.8955 39.889V40.0196C37.8955 39.7584 38.0262 39.4971 38.1569 39.4971Z" fill="white"/>
<path d="M42.2078 37.0153H39.3329C39.2023 37.0153 39.0716 37.2766 39.0716 37.5378V37.6684C39.0716 37.4072 39.2023 37.1459 39.3329 37.1459H42.2078C42.3384 37.1459 42.4691 37.4072 42.4691 37.6684V37.5378C42.4691 37.2766 42.3384 37.0153 42.2078 37.0153Z" fill="white"/>
<path d="M39.3329 12.8501C39.3329 12.7194 39.4636 12.5888 39.4636 12.4582C40.1169 10.7601 40.901 9.06198 41.5544 7.36388C41.8157 6.84139 41.5544 6.18827 41.1623 5.92703C40.7703 5.66578 40.1169 5.66578 39.7249 6.05765C39.5942 6.18827 39.4636 6.44952 39.3329 6.71077C38.6795 8.40887 37.8955 10.107 37.2421 11.8051C37.2421 11.9357 37.2421 11.9357 37.1114 12.0663C36.8501 11.8051 36.5887 11.8051 36.4581 11.6744C36.3274 11.5438 36.3274 11.2826 36.3274 11.152C36.9808 9.19261 37.6341 7.23326 38.2875 5.27391C38.8102 3.70643 39.3329 2.00833 39.8556 0.440853C39.9863 0.0489837 40.2476 -0.0816395 40.6396 0.0489837C42.0771 0.571477 43.5145 1.22459 44.9519 1.74709C45.3439 1.87771 45.4746 2.13895 45.2132 2.53082C44.4292 4.0983 43.7758 5.66578 42.9918 7.23326C42.2077 8.93136 41.4237 10.6295 40.6396 12.3276C40.2476 13.2419 40.1169 13.2419 39.3329 12.8501Z" fill="white"/>
<path d="M39.0715 12.5888C38.9409 13.1113 38.6795 13.6338 38.5489 14.1563C38.4182 14.4175 38.2875 14.5482 37.8955 14.4175C37.6341 14.2869 37.3728 14.1563 37.1114 14.1563C36.8501 14.0257 36.7194 13.895 36.8501 13.6338C37.2421 12.5888 37.6341 11.4132 38.0262 10.3682C38.1568 10.107 38.2875 9.97635 38.5489 10.107C38.8102 10.2376 39.0716 10.3682 39.4636 10.3682C39.7249 10.4988 39.8556 10.6295 39.7249 10.8907C39.4636 11.5438 39.3329 12.0663 39.0715 12.5888Z" fill="white"/>
<path d="M36.5887 18.8587V19.12C36.5887 19.3812 36.8501 19.6424 37.1114 19.6424C37.2421 19.6424 37.3728 19.5118 37.5035 19.5118C37.5035 19.5118 37.6341 19.3812 37.7648 19.3812H38.4182C38.8102 19.3812 39.0716 19.6424 39.0716 20.0343C39.0716 20.2956 39.3329 20.5568 39.5942 20.5568H42.2077V18.8587H36.5887Z" fill="white"/>
<path d="M36.4581 13.6338C36.1967 13.6338 34.1059 13.6338 33.9753 13.6338C33.5832 13.6338 33.3219 13.7644 33.3219 14.1563C33.3219 15.2013 33.3219 16.1156 33.3219 17.1606C33.3219 17.5525 33.4526 17.6831 33.9753 17.6831C35.1513 17.6831 40.3783 17.6831 41.5544 17.6831C42.0771 17.6831 42.2077 17.5525 42.2077 17.1606C42.2077 16.2463 42.2077 15.3319 42.2077 14.4175C42.2077 13.895 42.2077 13.7644 41.5544 13.7644C41.4237 13.7644 39.3329 13.7644 39.0716 13.7644C39.0716 14.1563 39.0716 14.4175 39.0716 14.8094C39.0716 15.2013 38.8102 15.4625 38.1568 15.4625C37.8955 15.4625 37.5035 15.4625 37.2421 15.4625C36.5887 15.4625 36.3274 15.2013 36.3274 14.8094C36.4581 14.4175 36.4581 14.0257 36.4581 13.6338Z" fill="white"/>
</svg>
