<svg width="40" height="40" viewBox="0 0 40 40" fill="none" xmlns="http://www.w3.org/2000/svg">
<path fill-rule="evenodd" clip-rule="evenodd" d="M10.364 10.3652C9.33128 11.3841 8.51035 12.5973 7.94845 13.9348C7.38655 15.2723 7.09477 16.7077 7.08991 18.1585C7.08505 19.6092 7.3672 21.0466 7.92013 22.3878C8.47306 23.729 9.28584 24.9477 10.3117 25.9735C11.3375 26.9993 12.5561 27.8121 13.8974 28.365C15.2386 28.918 16.676 29.2001 18.1267 29.1953C19.5774 29.1904 21.0129 28.8986 22.3504 28.3367C23.6879 27.7748 24.901 26.9539 25.92 25.9212C27.96 23.8536 29.0995 21.0631 29.0898 18.1585C29.0801 15.2539 27.9219 12.471 25.868 10.4171C23.8141 8.36327 21.0313 7.20511 18.1267 7.19537C15.2221 7.18564 12.4315 8.32513 10.364 10.3652ZM24.506 24.5072C23.6739 25.3594 22.681 26.0379 21.5848 26.5036C20.4885 26.9692 19.3108 27.2126 18.1198 27.2196C16.9288 27.2267 15.7483 26.9973 14.6466 26.5448C13.5449 26.0922 12.544 25.4255 11.7019 24.5833C10.8598 23.741 10.1932 22.74 9.74084 21.6383C9.28846 20.5365 9.05926 19.3559 9.06652 18.1649C9.07378 16.9739 9.31736 15.7962 9.78315 14.7001C10.2489 13.6039 10.9276 12.6111 11.78 11.7792C13.4678 10.0914 15.757 9.14314 18.144 9.14314C20.5309 9.14314 22.8201 10.0914 24.508 11.7792C26.1958 13.467 27.144 15.7562 27.144 18.1432C27.144 20.5302 26.1938 22.8194 24.506 24.5072Z" fill="#C0C0C0"/>
<path d="M24.0001 28.2421C23.6357 27.8649 23.4342 27.3597 23.4387 26.8353C23.4433 26.3109 23.6536 25.8093 24.0244 25.4385C24.3952 25.0677 24.8969 24.8573 25.4213 24.8528C25.9457 24.8482 26.4509 25.0498 26.8281 25.4141L34.4061 32.9921C34.7704 33.3693 34.972 33.8745 34.9674 34.3989C34.9629 34.9233 34.7525 35.425 34.3817 35.7958C34.0109 36.1666 33.5093 36.3769 32.9849 36.3815C32.4605 36.386 31.9553 36.1844 31.5781 35.8201L24.0001 28.2421ZM14.4141 19.3281C14.1488 19.3281 13.8945 19.2228 13.707 19.0352C13.5194 18.8477 13.4141 18.5933 13.4141 18.3281C13.4141 18.0629 13.5194 17.8086 13.707 17.621C13.8945 17.4335 14.1488 17.3281 14.4141 17.3281H22.4141C22.6793 17.3281 22.9336 17.4335 23.1212 17.621C23.3087 17.8086 23.4141 18.0629 23.4141 18.3281C23.4141 18.5933 23.3087 18.8477 23.1212 19.0352C22.9336 19.2228 22.6793 19.3281 22.4141 19.3281H14.4141Z" fill="#C0C0C0"/>
<path d="M17.4141 14.3281C17.4141 14.0629 17.5194 13.8086 17.707 13.621C17.8945 13.4335 18.1488 13.3281 18.4141 13.3281C18.6793 13.3281 18.9336 13.4335 19.1212 13.621C19.3087 13.8086 19.4141 14.0629 19.4141 14.3281V22.3281C19.4141 22.5933 19.3087 22.8477 19.1212 23.0352C18.9336 23.2228 18.6793 23.3281 18.4141 23.3281C18.1488 23.3281 17.8945 23.2228 17.707 23.0352C17.5194 22.8477 17.4141 22.5933 17.4141 22.3281V14.3281Z" fill="#C0C0C0"/>
</svg>
