<svg width="53" height="15" viewBox="0 0 53 15" fill="none" xmlns="http://www.w3.org/2000/svg">
<path d="M18.9689 14.9257H14.4012V6.24505C14.4012 6.07426 14.2675 5.94059 14.0967 5.94059C13.9407 5.94059 13.8219 6.04455 13.7996 6.19307L11.1258 14.9257H7.84305L5.16928 6.18564C5.147 6.05198 5.02817 5.94059 4.8722 5.94059C4.70137 5.94059 4.56769 6.07426 4.56769 6.24505V14.9257H0V0H3.92153H5.09501C5.93428 0 6.81811 0.653465 7.0632 1.45545L9.28391 8.72525C9.39532 9.08911 9.57357 9.08168 9.68498 8.72525L11.9057 1.45545C12.1582 0.64604 13.042 0 13.8813 0H15.0474H18.9689V14.9257ZM35.9547 14.9257H31.3871V6.05198C31.3796 5.91089 31.2682 5.78465 31.1122 5.78465C31.0083 5.78465 30.9191 5.83663 30.8746 5.92574V5.94059C30.8746 5.94802 30.8672 5.95545 30.8672 5.96287L27.1313 13.9678C26.8936 14.4876 26.2549 14.9035 25.6756 14.9332H21.1079V0.00742574H25.6756V8.68812C25.6756 8.85891 25.8093 8.99257 25.9801 8.99257C26.0841 8.99257 26.1806 8.94059 26.2326 8.86634C26.2475 8.83663 26.2623 8.81436 26.2698 8.77723L29.9016 0.980198C30.1467 0.45297 30.8003 0.0371287 31.3796 0.0148515H35.9473V14.9257H35.9547ZM47.9941 10.1287H42.8174V15H38.2497V6.7797H52.7326C52.0196 8.71782 50.1703 10.1139 47.9941 10.1287ZM52.9109 6.01485C52.9109 6.01485 44.9713 6.01485 44.9639 6.01485C41.0795 6.01485 37.8932 3.35644 37.6258 0H47.9718C50.7496 0.0222772 53 2.2797 53 5.06436C53 5.39109 52.9703 5.7104 52.9109 6.01485Z" fill="white"/>
</svg>
