<svg width="60" height="60" viewBox="0 0 60 60" fill="none" xmlns="http://www.w3.org/2000/svg">
<circle cx="30" cy="30" r="30" fill="#E9EBEC"/>
<circle cx="33.3663" cy="23.9507" r="4.43211" stroke="#643F36" stroke-width="2"/>
<rect x="13" y="26.0371" width="31.317" height="21.177" rx="1" fill="white" stroke="#643F36" stroke-width="2"/>
<path d="M22 31C22 29.8954 22.8954 29 24 29H42V45H22V31Z" fill="#E0DBD8"/>
<mask id="path-5-inside-1_0_1" fill="white">
<path fill-rule="evenodd" clip-rule="evenodd" d="M47.4898 33.5557C47.4898 32.4511 46.5944 31.5557 45.4898 31.5557H36.6327C36.6288 31.5557 36.6256 31.5589 36.6256 31.5628C36.6256 31.5666 36.6227 31.5697 36.6189 31.57C34.1913 31.7581 32.2799 33.7876 32.2799 36.2636C32.2799 38.7395 34.1913 40.7691 36.619 40.9572C36.6227 40.9574 36.6256 40.9605 36.6256 40.9642C36.6256 40.9682 36.6288 40.9713 36.6327 40.9713H36.9645C36.9722 40.9714 36.98 40.9714 36.9877 40.9714C36.9955 40.9714 37.0033 40.9714 37.011 40.9713H45.4898C46.5944 40.9713 47.4898 40.0759 47.4898 38.9713V33.5557Z"/>
</mask>
<path fill-rule="evenodd" clip-rule="evenodd" d="M47.4898 33.5557C47.4898 32.4511 46.5944 31.5557 45.4898 31.5557H36.6327C36.6288 31.5557 36.6256 31.5589 36.6256 31.5628C36.6256 31.5666 36.6227 31.5697 36.6189 31.57C34.1913 31.7581 32.2799 33.7876 32.2799 36.2636C32.2799 38.7395 34.1913 40.7691 36.619 40.9572C36.6227 40.9574 36.6256 40.9605 36.6256 40.9642C36.6256 40.9682 36.6288 40.9713 36.6327 40.9713H36.9645C36.9722 40.9714 36.98 40.9714 36.9877 40.9714C36.9955 40.9714 37.0033 40.9714 37.011 40.9713H45.4898C46.5944 40.9713 47.4898 40.0759 47.4898 38.9713V33.5557Z" fill="white"/>
<path d="M36.9645 40.9713L36.9741 38.9713H36.9645V40.9713ZM37.011 40.9713V38.9713L37.0014 38.9713L37.011 40.9713ZM36.619 40.9572L36.4645 42.9512L36.619 40.9572ZM36.6327 33.5557H45.4898V29.5557H36.6327V33.5557ZM34.2799 36.2636C34.2799 34.8404 35.3791 33.672 36.7735 33.564L36.4644 29.5759C33.0034 29.8441 30.2799 32.7348 30.2799 36.2636H34.2799ZM36.7735 38.9631C35.3792 38.8551 34.2799 37.6867 34.2799 36.2636H30.2799C30.2799 39.7923 33.0034 42.683 36.4645 42.9512L36.7735 38.9631ZM36.9645 38.9713H36.6327V42.9713H36.9645V38.9713ZM36.9877 38.9714C36.9833 38.9714 36.9787 38.9714 36.9741 38.9713L36.9549 42.9713C36.9657 42.9714 36.9767 42.9714 36.9877 42.9714V38.9714ZM37.0014 38.9713C36.9968 38.9714 36.9922 38.9714 36.9877 38.9714V42.9714C36.9988 42.9714 37.0097 42.9714 37.0206 42.9713L37.0014 38.9713ZM45.4898 38.9713H37.011V42.9713H45.4898V38.9713ZM45.4898 33.5557V38.9713H49.4898V33.5557H45.4898ZM45.4898 42.9713C47.6989 42.9713 49.4898 41.1805 49.4898 38.9713H45.4898V38.9713V42.9713ZM36.4645 42.9512C35.4392 42.8717 34.6256 42.0177 34.6256 40.9642H38.6256C38.6256 39.9034 37.8062 39.0431 36.7735 38.9631L36.4645 42.9512ZM34.6256 31.5628C34.6256 30.5095 35.439 29.6554 36.4644 29.5759L36.7735 33.564C37.8063 33.4839 38.6256 32.6236 38.6256 31.5628H34.6256ZM45.4898 33.5557H49.4898C49.4898 31.3465 47.6989 29.5557 45.4898 29.5557V33.5557ZM34.6256 40.9642C34.6256 42.0727 35.5242 42.9713 36.6327 42.9713V38.9713C37.7333 38.9713 38.6256 39.8636 38.6256 40.9642H34.6256ZM36.6327 29.5557C35.5242 29.5557 34.6256 30.4543 34.6256 31.5628H38.6256C38.6256 32.6634 37.7334 33.5557 36.6327 33.5557V29.5557Z" fill="#643F36" mask="url(#path-5-inside-1_0_1)"/>
<path d="M17.0699 29.3828L17.0699 43.1442" stroke="#643F36" stroke-width="2" stroke-linecap="round"/>
<circle cx="23.9507" cy="17.4321" r="4.43211" stroke="#643F36" stroke-width="2"/>
<circle cx="37.712" cy="36.2634" r="0.586423" fill="#643F36" stroke="#643F36"/>
<path d="M43.1441 25.3992V20.6914H39.5227" stroke="#643F36" stroke-width="2" stroke-linecap="round" stroke-linejoin="round"/>
<path d="M14.1728 25.3992V20.6914H17.7943" stroke="#643F36" stroke-width="2" stroke-linecap="round" stroke-linejoin="round"/>
</svg>
