<svg width="30" height="30" viewBox="0 0 30 30" fill="none" xmlns="http://www.w3.org/2000/svg">
<path d="M18.0937 14.999L8.90624 5.81147C8.59374 5.49897 8.44249 5.12897 8.45249 4.70147C8.46249 4.27397 8.62416 3.90438 8.93749 3.59272C9.25082 3.28105 9.62082 3.1248 10.0475 3.12397C10.4742 3.12313 10.8437 3.27938 11.1562 3.59272L20.75 13.2177C21 13.4677 21.1875 13.749 21.3125 14.0615C21.4375 14.374 21.5 14.6865 21.5 14.999C21.5 15.3115 21.4375 15.624 21.3125 15.9365C21.1875 16.249 21 16.5302 20.75 16.7802L11.125 26.4052C10.8125 26.7177 10.4479 26.869 10.0312 26.859C9.61457 26.849 9.24999 26.6873 8.93749 26.374C8.62499 26.0606 8.46874 25.6906 8.46874 25.264C8.46874 24.8373 8.62499 24.4677 8.93749 24.1552L18.0937 14.999Z" fill="white"/>
</svg>
