<svg width="60" height="60" viewBox="0 0 60 60" fill="none" xmlns="http://www.w3.org/2000/svg">
<circle cx="30" cy="30" r="30" fill="#E9EBEC"/>
<path d="M23.1622 46.8517C25.6648 48.3936 27.9126 49.4072 29.0298 49.8785L29.0299 49.8785C29.3807 50.0261 29.7465 50.1 30.1267 50.1C30.4627 50.1 30.8143 50.041 31.166 49.8932M23.1622 46.8517C20.8159 45.4172 18.2116 43.5168 16.115 41.1869C14.0185 38.8571 12.425 36.0923 12.1118 32.9303C11.7442 29.3892 11.9421 20.2788 12.0408 16.5358L12.0408 16.534L12.0409 16.534C12.0992 15.2376 12.9892 14.1307 14.2182 13.8204L29.3961 9.9887C29.3962 9.98867 29.3964 9.98864 29.3965 9.9886C29.8505 9.87037 30.333 9.87059 30.8 9.98851L30.8001 9.98853L45.9223 13.8204C47.2084 14.1451 48.0997 15.2964 48.0997 16.6239V32.8348C48.0997 36.0871 46.5853 38.9197 44.4469 41.2955C42.3087 43.6712 39.5409 45.5969 37.018 47.0384C34.5169 48.4796 32.2842 49.45 31.166 49.8932M23.1622 46.8517C23.1622 46.8517 23.1623 46.8517 23.1623 46.8517L23.2144 46.7664L23.162 46.8515C23.1621 46.8516 23.1621 46.8516 23.1622 46.8517ZM31.166 49.8932C31.1657 49.8933 31.1654 49.8934 31.1651 49.8935L31.1282 49.8006M31.166 49.8932C31.1664 49.893 31.1667 49.8929 31.167 49.8927L31.1282 49.8006M31.1282 49.8006C30.7897 49.943 30.4511 50 30.1267 50C29.7599 50 29.4072 49.9288 29.0687 49.7863L45.8978 13.9174C47.1392 14.2308 47.9997 15.3419 47.9997 16.6239V32.8348C47.9997 39.2735 42.0044 44.0741 36.9683 46.9516C34.4715 48.3903 32.2426 49.359 31.1282 49.8006ZM29.8125 11.6639L29.8125 11.664L29.8158 11.663C29.9047 11.6374 30.0082 11.6242 30.0984 11.6242C30.1793 11.6242 30.2602 11.6346 30.3588 11.6472C30.3691 11.6485 30.3795 11.6498 30.3902 11.6511L45.5201 15.4814C45.5202 15.4814 45.5202 15.4815 45.5203 15.4815C46.0263 15.6126 46.4044 16.0998 46.4044 16.6239V32.8205C46.4044 35.6423 45.0248 38.1477 43.0523 40.2884C41.08 42.4289 38.5222 44.1965 36.185 45.5401L36.1849 45.5401C33.7653 46.9322 31.6127 47.8701 30.5569 48.2967C30.2572 48.4014 29.9586 48.3884 29.6846 48.2834C28.6144 47.8283 26.4621 46.8621 24.0571 45.3708L24.0565 45.3705C21.8674 44.0342 19.4426 42.2735 17.4957 40.1462C15.5485 38.0186 14.0853 35.5308 13.8061 32.7393L13.8061 32.7391C13.4542 29.3141 13.6513 20.3053 13.7501 16.5981L13.7501 16.5979C13.7631 16.0739 14.1405 15.613 14.6345 15.4814C14.6347 15.4814 14.6349 15.4813 14.6351 15.4813L29.8125 11.6639Z" fill="#643F36" stroke="#643F36" stroke-width="0.2"/>
<path d="M30.0987 41.2394C36.2224 41.2394 41.1865 36.2265 41.1865 30.0428C41.1865 23.8591 36.2224 18.8462 30.0987 18.8462C23.9751 18.8462 19.011 23.8591 19.011 30.0428C19.011 36.2265 23.9751 41.2394 30.0987 41.2394Z" fill="#E0DBD8"/>
<path d="M24.3419 29.4043L24.4372 29.6322L24.3419 29.4043C24.2259 29.4528 24.1207 29.5238 24.0322 29.6132C23.943 29.7017 23.8721 29.807 23.8237 29.9231C23.775 30.0396 23.75 30.1646 23.75 30.2908C23.75 30.4171 23.775 30.5421 23.8237 30.6586C23.8722 30.7749 23.9432 30.8804 24.0327 30.969C24.0329 30.9692 24.0331 30.9694 24.0333 30.9696L27.0278 33.9673C27.4042 34.3442 28.013 34.3442 28.3895 33.9674C28.3895 33.9674 28.3895 33.9674 28.3895 33.9673L35.9667 26.389C35.9669 26.3889 35.9671 26.3887 35.9672 26.3885C36.0567 26.2999 36.1278 26.1944 36.1763 26.0781C36.225 25.9615 36.25 25.8365 36.25 25.7103C36.25 25.584 36.225 25.459 36.1763 25.3425C36.1279 25.2265 36.057 25.1212 35.9678 25.0326C35.8793 24.9433 35.7741 24.8723 35.6581 24.8238C35.5417 24.7751 35.4167 24.75 35.2905 24.75C35.1643 24.75 35.0393 24.7751 34.9228 24.8238C34.8066 24.8724 34.7012 24.9435 34.6127 25.0331C34.6125 25.0333 34.6123 25.0335 34.6121 25.0337L27.7122 31.9411L25.3879 29.6142C25.3877 29.614 25.3875 29.6139 25.3874 29.6137C25.2988 29.5241 25.1934 29.4529 25.0772 29.4043L24.985 29.6246L25.0772 29.4043C24.9607 29.3556 24.8357 29.3305 24.7095 29.3305C24.5833 29.3305 24.4583 29.3556 24.3419 29.4043Z" fill="#643F36" stroke="#643F36" stroke-width="0.5"/>
</svg>
