<svg width="60" height="60" viewBox="0 0 60 60" fill="none" xmlns="http://www.w3.org/2000/svg">
<circle cx="30" cy="30" r="30" fill="#E9EBEC"/>
<path d="M29.3952 50.2554C29.0523 50.2554 28.7227 50.1887 28.4062 50.0554C27.3645 49.6153 25.2678 48.6684 22.9338 47.2282C18.5558 44.5477 13.2284 40.1336 12.6482 34.2658C12.3054 30.9586 12.49 22.437 12.5823 18.9297C12.635 17.7562 13.4394 16.756 14.5471 16.4759L28.7359 12.8886C29.1447 12.7819 29.5798 12.7819 30.0018 12.8886L44.1378 16.4759C45.2982 16.7693 46.1026 17.8095 46.1026 19.0097V34.1858C46.1026 40.2136 40.4983 44.7077 35.7907 47.4016C33.4567 48.7485 31.3732 49.6553 30.3314 50.0687C30.015 50.2021 29.6985 50.2554 29.3952 50.2554ZM29.3688 14.2355C29.2765 14.2355 29.171 14.2489 29.0787 14.2755L14.89 17.8495C14.3889 17.9829 14.0064 18.4496 13.9933 18.983C13.901 22.4503 13.7163 30.8919 14.046 34.1058C14.5735 39.3868 19.5712 43.4942 23.6722 46.0013C25.9271 47.4016 27.9447 48.3084 28.9469 48.7351C29.2238 48.8418 29.5271 48.8552 29.8304 48.7485C30.8193 48.3484 32.8369 47.4682 35.105 46.1613C39.4829 43.6409 44.7048 39.5201 44.7048 34.1725V19.0097C44.7048 18.4763 44.3224 17.9829 43.8081 17.8495L29.6589 14.2622C29.6471 14.2607 29.6354 14.2592 29.6238 14.2577C29.5327 14.246 29.4507 14.2355 29.3688 14.2355Z" fill="#643F36"/>
<path d="M29.3952 50.2554C29.0523 50.2554 28.7227 50.1887 28.4062 50.0554C27.3645 49.6153 25.2678 48.6684 22.9338 47.2282C18.5558 44.5477 13.2284 40.1336 12.6482 34.2658C12.3054 30.9586 12.49 22.437 12.5823 18.9297C12.635 17.7562 13.4394 16.756 14.5471 16.4759L28.7359 12.8886C29.1447 12.7819 29.5798 12.7819 30.0018 12.8886L44.1378 16.4759C45.2982 16.7693 46.1026 17.8095 46.1026 19.0097V34.1858C46.1026 40.2136 40.4983 44.7077 35.7907 47.4016C33.4567 48.7485 31.3732 49.6553 30.3314 50.0687C30.015 50.2021 29.6985 50.2554 29.3952 50.2554ZM29.3688 14.2355C29.2765 14.2355 29.171 14.2489 29.0787 14.2755L14.89 17.8495C14.3889 17.9829 14.0064 18.4496 13.9933 18.983C13.901 22.4503 13.7163 30.8919 14.046 34.1058C14.5735 39.3868 19.5712 43.4942 23.6722 46.0013C25.9271 47.4016 27.9447 48.3084 28.9469 48.7351C29.2238 48.8418 29.5271 48.8552 29.8304 48.7485C30.8193 48.3484 32.8369 47.4682 35.105 46.1613C39.4829 43.6409 44.7048 39.5201 44.7048 34.1725V19.0097C44.7048 18.4763 44.3224 17.9829 43.8081 17.8495L29.6589 14.2622C29.6471 14.2607 29.6354 14.2592 29.6238 14.2577C29.5327 14.246 29.4507 14.2355 29.3688 14.2355Z" stroke="#643F36"/>
<path d="M29.3686 42.0537C35.0928 42.0537 39.7332 37.3607 39.7332 31.5717C39.7332 25.7828 35.0928 21.0898 29.3686 21.0898C23.6443 21.0898 19.0039 25.7828 19.0039 31.5717C19.0039 37.3607 23.6443 42.0537 29.3686 42.0537Z" fill="#E0DBD8"/>
<path d="M27.1381 33.6808L24.799 31.3357C24.7379 31.2736 24.665 31.2243 24.5847 31.1907C24.5044 31.157 24.4182 31.1397 24.3312 31.1397C24.2442 31.1397 24.158 31.157 24.0777 31.1907C23.9974 31.2243 23.9246 31.2736 23.8634 31.3357C23.8015 31.397 23.7523 31.47 23.7188 31.5505C23.6852 31.631 23.668 31.7174 23.668 31.8047C23.668 31.8919 23.6852 31.9783 23.7188 32.0588C23.7523 32.1393 23.8015 32.2124 23.8634 32.2737L26.6636 35.0811C26.9242 35.3424 27.3453 35.3424 27.6059 35.0811L34.6899 27.9855C34.7518 27.9242 34.801 27.8512 34.8345 27.7707C34.8681 27.6902 34.8854 27.6038 34.8854 27.5165C34.8854 27.4293 34.8681 27.3429 34.8345 27.2624C34.801 27.1819 34.7518 27.1088 34.6899 27.0475C34.6288 26.9854 34.5559 26.9362 34.4756 26.9025C34.3953 26.8689 34.3091 26.8516 34.2221 26.8516C34.1351 26.8516 34.0489 26.8689 33.9686 26.9025C33.8883 26.9362 33.8155 26.9854 33.7543 27.0475L27.1381 33.6808Z" fill="#643F36"/>
<path d="M27.1381 33.6808L24.799 31.3357C24.7379 31.2736 24.665 31.2243 24.5847 31.1907C24.5044 31.157 24.4182 31.1397 24.3312 31.1397C24.2442 31.1397 24.158 31.157 24.0777 31.1907C23.9974 31.2243 23.9246 31.2736 23.8634 31.3357C23.8015 31.397 23.7523 31.47 23.7188 31.5505C23.6852 31.631 23.668 31.7174 23.668 31.8047C23.668 31.8919 23.6852 31.9783 23.7188 32.0588C23.7523 32.1393 23.8015 32.2124 23.8634 32.2737L26.6636 35.0811C26.9242 35.3424 27.3453 35.3424 27.6059 35.0811L34.6899 27.9855C34.7518 27.9242 34.801 27.8512 34.8345 27.7707C34.8681 27.6902 34.8854 27.6038 34.8854 27.5165C34.8854 27.4293 34.8681 27.3429 34.8345 27.2624C34.801 27.1819 34.7518 27.1088 34.6899 27.0475C34.6288 26.9854 34.5559 26.9362 34.4756 26.9025C34.3953 26.8689 34.3091 26.8516 34.2221 26.8516C34.1351 26.8516 34.0489 26.8689 33.9686 26.9025C33.8883 26.9362 33.8155 26.9854 33.7543 27.0475L27.1381 33.6808Z" stroke="#643F36"/>
</svg>
