<svg width="50" height="50" viewBox="0 0 50 50" fill="none" xmlns="http://www.w3.org/2000/svg">
<circle cx="25" cy="25" r="25" fill="#D9D9D9"/>
<path d="M21.0896 30.3343L33.4843 34.7132C33.6925 34.7871 33.9148 34.8141 34.135 34.7923C34.3552 34.7704 34.5676 34.7002 34.7568 34.5869C34.946 34.4735 35.1071 34.3198 35.2285 34.137C35.3498 33.9543 35.4282 33.747 35.458 33.5305L37.9866 14.6524C38.1406 13.503 36.935 12.6456 35.8711 13.1456L11.8418 24.4741C10.6538 25.0341 10.7429 26.7275 11.9849 27.1635L15.279 28.3209L17.0746 28.9436M25.8498 32.0144L23.1632 36.4493C22.2857 37.5266 20.5185 36.9173 20.5185 35.5385V31.9877C20.5185 31.3177 20.774 30.6722 21.234 30.1797L26.46 24.5794" stroke="#474141" stroke-width="3" stroke-linecap="round" stroke-linejoin="round"/>
</svg>
