<svg width="50" height="50" viewBox="0 0 50 50" fill="none" xmlns="http://www.w3.org/2000/svg">
<circle cx="25" cy="25" r="25" fill="#E9EBEC"/>
<path d="M17.3921 21.9766L17.3921 21.9766L17.3982 21.9705L24.4694 14.8993C24.6101 14.7587 24.8008 14.6797 24.9997 14.6797C25.1985 14.6797 25.3893 14.7587 25.5299 14.8992C25.5299 14.8992 25.5299 14.8993 25.5299 14.8993L32.5977 21.967C32.7326 22.1082 32.8073 22.2965 32.8056 22.4918C32.8039 22.6885 32.725 22.8766 32.5859 23.0156C32.4469 23.1547 32.2588 23.2336 32.0621 23.2353C31.8667 23.237 31.6784 23.1624 31.5373 23.0274L26.6032 18.0934L25.7497 17.2398V18.4469V35.0007C25.7497 35.1996 25.6707 35.3903 25.53 35.531C25.3894 35.6717 25.1986 35.7507 24.9997 35.7507C24.8008 35.7507 24.61 35.6717 24.4694 35.531C24.3287 35.3903 24.2497 35.1996 24.2497 35.0007V18.4469V17.2398L23.3961 18.0934L18.4586 23.0309L18.4586 23.0308L18.4526 23.0371C18.3834 23.1087 18.3006 23.1658 18.2091 23.2051C18.1176 23.2444 18.0192 23.2651 17.9196 23.266C17.82 23.2669 17.7213 23.2479 17.6291 23.2102C17.5369 23.1725 17.4532 23.1168 17.3828 23.0464C17.3123 22.9759 17.2566 22.8922 17.2189 22.8L16.7587 22.9883L17.2189 22.8C17.1812 22.7079 17.1622 22.6091 17.1631 22.5095C17.164 22.4099 17.1847 22.3115 17.224 22.22C17.2633 22.1285 17.3204 22.0458 17.3921 21.9766Z" fill="#474141" stroke="#474141"/>
</svg>
