<svg width="49" height="16" viewBox="0 0 49 16" fill="none" xmlns="http://www.w3.org/2000/svg">
<path d="M18.6037 0.281751L12.1888 15.5861H8.00333L4.84692 3.37079C4.655 2.61946 4.48962 2.34383 3.90571 2.02737C2.95429 1.51083 1.38221 1.02696 0 0.724793L0.0939167 0.281751H6.83142C7.2717 0.28131 7.69763 0.438274 8.03234 0.724312C8.36705 1.01035 8.58848 1.40661 8.65667 1.84158L10.3247 10.6983L14.4448 0.281751H18.6037ZM35.0044 10.5901C35.0207 6.54967 29.4184 6.32712 29.4572 4.52229C29.4694 3.97308 29.9921 3.38917 31.1354 3.24013C32.4753 3.11287 33.8248 3.34988 35.0411 3.92613L35.7353 0.679875C34.5511 0.234384 33.2969 0.00413755 32.0317 0C28.1178 0 25.3636 2.0825 25.3391 5.06129C25.3146 7.26425 27.3053 8.49129 28.8059 9.22629C30.3494 9.97558 30.868 10.4574 30.8598 11.1271C30.8496 12.1561 29.6307 12.6073 28.4915 12.6257C26.5008 12.6563 25.3473 12.0887 24.4245 11.66L23.7078 15.0124C24.6327 15.437 26.3395 15.8086 28.1097 15.825C32.2685 15.825 34.9901 13.771 35.0044 10.5901ZM45.3372 15.5861H49L45.8048 0.281751H42.4238C42.0624 0.277564 41.7081 0.38249 41.4072 0.582823C41.1063 0.783155 40.8729 1.06958 40.7374 1.40467L34.7982 15.5861H38.955L39.7819 13.2994H44.8615L45.3372 15.5861ZM40.9211 10.1634L43.0036 4.41612L44.2041 10.1634H40.9211ZM24.2611 0.281751L20.9883 15.5861H17.0275L20.3044 0.281751H24.2611Z" fill="white"/>
</svg>
