<svg width="14" height="14" viewBox="0 0 14 14" fill="none" xmlns="http://www.w3.org/2000/svg">
<path d="M7.122 8.69L6.968 3.3H7.892L7.727 8.69H7.122ZM7.43 11.055C7.26867 11.055 7.12933 11 7.012 10.89C6.902 10.7727 6.847 10.637 6.847 10.483C6.847 10.3217 6.902 10.1897 7.012 10.087C7.12933 9.977 7.26867 9.922 7.43 9.922C7.59867 9.922 7.73433 9.977 7.837 10.087C7.947 10.1897 8.002 10.3217 8.002 10.483C8.002 10.637 7.947 10.7727 7.837 10.89C7.73433 11 7.59867 11.055 7.43 11.055Z" fill="#C85F5F"/>
<circle cx="7" cy="7" r="6.5" stroke="#C85F5F"/>
</svg>
